<svg width="145" height="29" viewBox="0 0 145 29" fill="none" xmlns="http://www.w3.org/2000/svg">
<path d="M9.16672 0.199998C12.1267 0.199998 14.7134 0.773332 16.9267 1.92C19.1667 3.04 20.8867 4.66667 22.0867 6.8C23.3134 8.90667 23.9267 11.3733 23.9267 14.2C23.9267 17.0267 23.3134 19.48 22.0867 21.56C20.8867 23.64 19.1667 25.24 16.9267 26.36C14.7134 27.4533 12.1267 28 9.16672 28H0.0867158V0.199998H9.16672ZM9.16672 24.28C12.42 24.28 14.9134 23.4 16.6467 21.64C18.38 19.88 19.2467 17.4 19.2467 14.2C19.2467 10.9733 18.38 8.45333 16.6467 6.64C14.9134 4.82666 12.42 3.92 9.16672 3.92H4.64672V24.28H9.16672ZM48.2461 16.44C48.2461 17.2667 48.1928 18.0133 48.0861 18.68H31.2461C31.3794 20.44 32.0328 21.8533 33.2061 22.92C34.3794 23.9867 35.8194 24.52 37.5261 24.52C39.9794 24.52 41.7128 23.4933 42.7261 21.44H47.6461C46.9794 23.4667 45.7661 25.1333 44.0061 26.44C42.2728 27.72 40.1128 28.36 37.5261 28.36C35.4194 28.36 33.5261 27.8933 31.8461 26.96C30.1928 26 28.8861 24.6667 27.9261 22.96C26.9928 21.2267 26.5261 19.2267 26.5261 16.96C26.5261 14.6933 26.9794 12.7067 27.8861 11C28.8194 9.26667 30.1128 7.93333 31.7661 7C33.4461 6.06667 35.3661 5.6 37.5261 5.6C39.6061 5.6 41.4594 6.05333 43.0861 6.96C44.7128 7.86667 45.9794 9.14667 46.8861 10.8C47.7928 12.4267 48.2461 14.3067 48.2461 16.44ZM43.4861 15C43.4594 13.32 42.8594 11.9733 41.6861 10.96C40.5128 9.94667 39.0594 9.44 37.3261 9.44C35.7528 9.44 34.4061 9.94667 33.2861 10.96C32.1661 11.9467 31.4994 13.2933 31.2861 15H43.4861ZM50.8136 16.96C50.8136 14.6933 51.2669 12.7067 52.1736 11C53.1069 9.26667 54.3869 7.93333 56.0136 7C57.6403 6.06667 59.5069 5.6 61.6136 5.6C64.2803 5.6 66.4803 6.24 68.2136 7.52C69.9736 8.77333 71.1603 10.5733 71.7736 12.92H66.8536C66.4536 11.8267 65.8136 10.9733 64.9336 10.36C64.0536 9.74667 62.9469 9.44 61.6136 9.44C59.7469 9.44 58.2536 10.1067 57.1336 11.44C56.0403 12.7467 55.4936 14.5867 55.4936 16.96C55.4936 19.3333 56.0403 21.1867 57.1336 22.52C58.2536 23.8533 59.7469 24.52 61.6136 24.52C64.2536 24.52 66.0003 23.36 66.8536 21.04H71.7736C71.1336 23.28 69.9336 25.0667 68.1736 26.4C66.4136 27.7067 64.2269 28.36 61.6136 28.36C59.5069 28.36 57.6403 27.8933 56.0136 26.96C54.3869 26 53.1069 24.6667 52.1736 22.96C51.2669 21.2267 50.8136 19.2267 50.8136 16.96ZM85.478 28.36C83.398 28.36 81.518 27.8933 79.838 26.96C78.158 26 76.838 24.6667 75.878 22.96C74.918 21.2267 74.438 19.2267 74.438 16.96C74.438 14.72 74.9313 12.7333 75.918 11C76.9046 9.26667 78.2513 7.93333 79.958 7C81.6646 6.06667 83.5713 5.6 85.678 5.6C87.7846 5.6 89.6913 6.06667 91.398 7C93.1046 7.93333 94.4513 9.26667 95.438 11C96.4246 12.7333 96.918 14.72 96.918 16.96C96.918 19.2 96.4113 21.1867 95.398 22.92C94.3846 24.6533 92.998 26 91.238 26.96C89.5046 27.8933 87.5846 28.36 85.478 28.36ZM85.478 24.4C86.6513 24.4 87.7446 24.12 88.758 23.56C89.798 23 90.638 22.16 91.278 21.04C91.918 19.92 92.238 18.56 92.238 16.96C92.238 15.36 91.9313 14.0133 91.318 12.92C90.7046 11.8 89.8913 10.96 88.878 10.4C87.8646 9.84 86.7713 9.56 85.598 9.56C84.4246 9.56 83.3313 9.84 82.318 10.4C81.3313 10.96 80.5446 11.8 79.958 12.92C79.3713 14.0133 79.078 15.36 79.078 16.96C79.078 19.3333 79.678 21.1733 80.878 22.48C82.1046 23.76 83.638 24.4 85.478 24.4ZM105.586 9.16C106.252 8.04 107.132 7.17333 108.226 6.56C109.346 5.92 110.666 5.6 112.186 5.6V10.32H111.026C109.239 10.32 107.879 10.7733 106.946 11.68C106.039 12.5867 105.586 14.16 105.586 16.4V28H101.026V5.96H105.586V9.16ZM136.177 16.44C136.177 17.2667 136.124 18.0133 136.017 18.68H119.177C119.311 20.44 119.964 21.8533 121.137 22.92C122.311 23.9867 123.751 24.52 125.457 24.52C127.911 24.52 129.644 23.4933 130.657 21.44H135.577C134.911 23.4667 133.697 25.1333 131.937 26.44C130.204 27.72 128.044 28.36 125.457 28.36C123.351 28.36 121.457 27.8933 119.777 26.96C118.124 26 116.817 24.6667 115.857 22.96C114.924 21.2267 114.457 19.2267 114.457 16.96C114.457 14.6933 114.911 12.7067 115.817 11C116.751 9.26667 118.044 7.93333 119.697 7C121.377 6.06667 123.297 5.6 125.457 5.6C127.537 5.6 129.391 6.05333 131.017 6.96C132.644 7.86667 133.911 9.14667 134.817 10.8C135.724 12.4267 136.177 14.3067 136.177 16.44ZM131.417 15C131.391 13.32 130.791 11.9733 129.617 10.96C128.444 9.94667 126.991 9.44 125.257 9.44C123.684 9.44 122.337 9.94667 121.217 10.96C120.097 11.9467 119.431 13.2933 119.217 15H131.417ZM142.105 28.28C141.278 28.28 140.585 28 140.025 27.44C139.465 26.88 139.185 26.1867 139.185 25.36C139.185 24.5333 139.465 23.84 140.025 23.28C140.585 22.72 141.278 22.44 142.105 22.44C142.905 22.44 143.585 22.72 144.145 23.28C144.705 23.84 144.985 24.5333 144.985 25.36C144.985 26.1867 144.705 26.88 144.145 27.44C143.585 28 142.905 28.28 142.105 28.28Z" fill="#161515"/>
</svg>
