<svg width="270" height="72" viewBox="0 0 270 72" fill="none" xmlns="http://www.w3.org/2000/svg">
<path d="M65.4408 39V12.52H76.6008C78.1741 12.52 79.6808 12.8267 81.1208 13.44C82.5874 14.0267 83.8941 14.8933 85.0408 16.04C86.1875 17.1867 87.0941 18.5733 87.7608 20.2C88.4275 21.8267 88.7608 23.68 88.7608 25.76C88.7608 27.84 88.4275 29.6933 87.7608 31.32C87.0941 32.9467 86.1875 34.3333 85.0408 35.48C83.8941 36.6267 82.5874 37.5067 81.1208 38.12C79.6808 38.7067 78.1741 39 76.6008 39H65.4408ZM68.4408 36.16H76.4808C78.3741 36.16 80.0141 35.68 81.4008 34.72C82.7874 33.76 83.8541 32.4933 84.6008 30.92C85.3741 29.3467 85.7608 27.6267 85.7608 25.76C85.7608 23.8667 85.3741 22.1333 84.6008 20.56C83.8541 18.9867 82.7874 17.7333 81.4008 16.8C80.0141 15.84 78.3741 15.36 76.4808 15.36H68.4408V36.16ZM103.006 39.32C100.979 39.32 99.2058 38.8667 97.6858 37.96C96.1658 37.0267 94.9791 35.7733 94.1258 34.2C93.2991 32.6267 92.8858 30.8933 92.8858 29C92.8858 27.08 93.2858 25.3467 94.0858 23.8C94.8858 22.2267 96.0325 20.9867 97.5258 20.08C99.0191 19.1467 100.779 18.68 102.806 18.68C104.859 18.68 106.619 19.1467 108.086 20.08C109.579 20.9867 110.726 22.2267 111.526 23.8C112.326 25.3467 112.726 27.08 112.726 29V30.2H95.9658C96.1258 31.3733 96.4991 32.4533 97.0858 33.44C97.6991 34.4 98.5125 35.1733 99.5258 35.76C100.539 36.32 101.712 36.6 103.046 36.6C104.459 36.6 105.646 36.2933 106.606 35.68C107.566 35.04 108.312 34.2267 108.846 33.24H112.126C111.432 35.0267 110.326 36.4933 108.806 37.64C107.312 38.76 105.379 39.32 103.006 39.32ZM96.0058 27.4H109.606C109.339 25.6933 108.619 24.2667 107.446 23.12C106.272 21.9733 104.726 21.4 102.806 21.4C100.886 21.4 99.3391 21.9733 98.1658 23.12C97.0191 24.2667 96.2991 25.6933 96.0058 27.4ZM126.191 39.32C124.191 39.32 122.458 38.8667 120.991 37.96C119.525 37.0267 118.378 35.7733 117.551 34.2C116.751 32.6267 116.351 30.8933 116.351 29C116.351 27.08 116.751 25.3467 117.551 23.8C118.378 22.2267 119.525 20.9867 120.991 20.08C122.458 19.1467 124.191 18.68 126.191 18.68C128.565 18.68 130.578 19.2933 132.231 20.52C133.911 21.7467 135.045 23.3333 135.631 25.28H132.391C131.938 24.1333 131.205 23.2 130.191 22.48C129.205 21.76 128.005 21.4 126.591 21.4C125.125 21.4 123.845 21.7467 122.751 22.44C121.658 23.1333 120.818 24.0533 120.231 25.2C119.645 26.3467 119.351 27.6133 119.351 29C119.351 30.36 119.645 31.6267 120.231 32.8C120.818 33.9467 121.658 34.8667 122.751 35.56C123.845 36.2533 125.125 36.6 126.591 36.6C128.005 36.6 129.205 36.24 130.191 35.52C131.205 34.8 131.938 33.8667 132.391 32.72H135.631C135.045 34.6667 133.911 36.2533 132.231 37.48C130.578 38.7067 128.565 39.32 126.191 39.32ZM149.229 39.32C147.203 39.32 145.443 38.8667 143.949 37.96C142.456 37.0267 141.309 35.7733 140.509 34.2C139.709 32.6267 139.309 30.8933 139.309 29C139.309 27.08 139.709 25.3467 140.509 23.8C141.309 22.2267 142.456 20.9867 143.949 20.08C145.443 19.1467 147.203 18.68 149.229 18.68C151.283 18.68 153.043 19.1467 154.509 20.08C156.003 20.9867 157.149 22.2267 157.949 23.8C158.749 25.3467 159.149 27.08 159.149 29C159.149 30.8933 158.749 32.6267 157.949 34.2C157.149 35.7733 156.003 37.0267 154.509 37.96C153.043 38.8667 151.283 39.32 149.229 39.32ZM149.229 36.6C150.723 36.6 151.976 36.2533 152.989 35.56C154.029 34.8667 154.816 33.9467 155.349 32.8C155.883 31.6267 156.149 30.36 156.149 29C156.149 27.6133 155.883 26.3467 155.349 25.2C154.816 24.0533 154.029 23.1333 152.989 22.44C151.976 21.7467 150.723 21.4 149.229 21.4C147.763 21.4 146.509 21.7467 145.469 22.44C144.429 23.1333 143.643 24.0533 143.109 25.2C142.576 26.3467 142.309 27.6133 142.309 29C142.309 30.36 142.576 31.6267 143.109 32.8C143.643 33.9467 144.429 34.8667 145.469 35.56C146.509 36.2533 147.763 36.6 149.229 36.6ZM164.327 39V19H167.327V23.92C167.434 23.5733 167.634 23.12 167.927 22.56C168.247 21.9733 168.701 21.3867 169.287 20.8C169.874 20.2133 170.607 19.72 171.487 19.32C172.394 18.8933 173.461 18.68 174.687 18.68H174.887V21.68H174.527C173.034 21.68 171.741 22.0933 170.647 22.92C169.581 23.72 168.754 24.7733 168.167 26.08C167.607 27.36 167.327 28.7333 167.327 30.2V39H164.327ZM187.689 39.32C185.662 39.32 183.889 38.8667 182.369 37.96C180.849 37.0267 179.662 35.7733 178.809 34.2C177.982 32.6267 177.569 30.8933 177.569 29C177.569 27.08 177.969 25.3467 178.769 23.8C179.569 22.2267 180.715 20.9867 182.209 20.08C183.702 19.1467 185.462 18.68 187.489 18.68C189.542 18.68 191.302 19.1467 192.769 20.08C194.262 20.9867 195.409 22.2267 196.209 23.8C197.009 25.3467 197.409 27.08 197.409 29V30.2H180.649C180.809 31.3733 181.182 32.4533 181.769 33.44C182.382 34.4 183.195 35.1733 184.209 35.76C185.222 36.32 186.395 36.6 187.729 36.6C189.142 36.6 190.329 36.2933 191.289 35.68C192.249 35.04 192.995 34.2267 193.529 33.24H196.809C196.115 35.0267 195.009 36.4933 193.489 37.64C191.995 38.76 190.062 39.32 187.689 39.32ZM180.689 27.4H194.289C194.022 25.6933 193.302 24.2667 192.129 23.12C190.955 21.9733 189.409 21.4 187.489 21.4C185.569 21.4 184.022 21.9733 182.849 23.12C181.702 24.2667 180.982 25.6933 180.689 27.4ZM201.794 39V34.92H205.674V39H201.794Z" fill="#161515"/>
<path d="M79.8326 66.7567C79.822 66.8953 79.7686 67.0127 79.6726 67.1087C79.5766 67.2047 79.4593 67.2527 79.3206 67.2527C79.1713 67.2527 79.0486 67.21 78.9526 67.1247C78.8673 67.0287 78.8246 66.906 78.8246 66.7567V56.5487C78.8246 56.3993 78.8726 56.282 78.9686 56.1967C79.0646 56.1007 79.1873 56.0527 79.3366 56.0527C79.4753 56.0527 79.5926 56.1007 79.6886 56.1967C79.7846 56.2927 79.8326 56.41 79.8326 56.5487V66.7567ZM86.9206 58.8847C87.9126 58.8847 88.638 59.178 89.0966 59.7647C89.566 60.3407 89.8006 61.1087 89.8006 62.0687V66.7727C89.8006 66.9113 89.7526 67.0287 89.6566 67.1247C89.5606 67.21 89.4486 67.2527 89.3206 67.2527C89.182 67.2527 89.0646 67.21 88.9686 67.1247C88.8833 67.0287 88.8406 66.9113 88.8406 66.7727V62.1167C88.8406 61.4233 88.6646 60.8633 88.3126 60.4367C87.9713 59.9993 87.438 59.7807 86.7126 59.7807C86.254 59.7807 85.8166 59.8873 85.4006 60.1007C84.9953 60.314 84.6646 60.602 84.4086 60.9647C84.1526 61.3167 84.0246 61.7007 84.0246 62.1167V66.7727C84.0246 66.9113 83.9766 67.0287 83.8806 67.1247C83.7953 67.21 83.6833 67.2527 83.5446 67.2527C83.406 67.2527 83.2886 67.21 83.1926 67.1247C83.1073 67.0287 83.0646 66.9113 83.0646 66.7727V59.6047C83.0646 59.466 83.1073 59.354 83.1926 59.2687C83.2886 59.1727 83.406 59.1247 83.5446 59.1247C83.6833 59.1247 83.7953 59.1727 83.8806 59.2687C83.9766 59.354 84.0246 59.466 84.0246 59.6047V60.4847C84.3126 60.026 84.7233 59.6473 85.2566 59.3487C85.8006 59.0393 86.3553 58.8847 86.9206 58.8847ZM94.3946 60.0047V65.3647C94.3946 65.77 94.4693 66.0473 94.6186 66.1967C94.768 66.3353 94.9653 66.4047 95.2106 66.4047C95.2746 66.4047 95.3546 66.394 95.4506 66.3727C95.5466 66.3407 95.6213 66.3247 95.6746 66.3247C95.7706 66.3247 95.8506 66.3673 95.9146 66.4527C95.9893 66.5273 96.0266 66.618 96.0266 66.7247C96.0266 66.874 95.9413 67.002 95.7706 67.1087C95.6 67.2047 95.3973 67.2527 95.1626 67.2527C94.8746 67.2527 94.6186 67.226 94.3946 67.1727C94.1706 67.1193 93.952 66.9593 93.7386 66.6927C93.536 66.426 93.4346 65.9993 93.4346 65.4127V60.0047H92.2666C92.1386 60.0047 92.0266 59.962 91.9306 59.8767C91.8453 59.7913 91.8026 59.6847 91.8026 59.5567C91.8026 59.4287 91.8453 59.322 91.9306 59.2367C92.0266 59.1513 92.1386 59.1087 92.2666 59.1087H93.4346V57.3327C93.4346 57.194 93.4773 57.082 93.5626 56.9967C93.6586 56.9007 93.776 56.8527 93.9146 56.8527C94.0533 56.8527 94.1653 56.9007 94.2506 56.9967C94.3466 57.082 94.3946 57.194 94.3946 57.3327V59.1087H95.9946C96.112 59.1087 96.2133 59.1567 96.2986 59.2527C96.3946 59.3487 96.4426 59.4553 96.4426 59.5727C96.4426 59.7007 96.4 59.8073 96.3146 59.8927C96.2293 59.9673 96.1226 60.0047 95.9946 60.0047H94.3946ZM105.53 62.6927C105.53 62.8207 105.482 62.9327 105.386 63.0287C105.29 63.114 105.178 63.1567 105.05 63.1567H99.0024C99.0024 63.7967 99.1304 64.3727 99.3864 64.8847C99.653 65.386 100.026 65.786 100.506 66.0847C100.997 66.3727 101.573 66.5167 102.234 66.5167C102.746 66.5167 103.205 66.41 103.61 66.1967C104.016 65.9833 104.341 65.7113 104.586 65.3807C104.704 65.2847 104.816 65.2367 104.922 65.2367C105.029 65.2367 105.125 65.2793 105.21 65.3647C105.296 65.45 105.338 65.546 105.338 65.6527C105.338 65.77 105.285 65.882 105.178 65.9887C104.837 66.4047 104.405 66.746 103.882 67.0127C103.37 67.2793 102.826 67.4127 102.25 67.4127C101.429 67.4127 100.704 67.2367 100.074 66.8847C99.445 66.5327 98.9544 66.042 98.6024 65.4127C98.2504 64.7727 98.0744 64.0367 98.0744 63.2047C98.0744 62.33 98.245 61.5673 98.5864 60.9167C98.9384 60.2553 99.4024 59.754 99.9784 59.4127C100.554 59.0607 101.168 58.8847 101.818 58.8847C102.458 58.8847 103.056 59.034 103.61 59.3327C104.176 59.6313 104.634 60.0687 104.986 60.6447C105.338 61.2207 105.52 61.9033 105.53 62.6927ZM101.818 59.8127C101.2 59.8127 100.624 60.026 100.09 60.4527C99.5677 60.8793 99.2317 61.4927 99.0824 62.2927H104.538V62.1647C104.485 61.6847 104.325 61.2687 104.058 60.9167C103.792 60.554 103.456 60.282 103.05 60.1007C102.656 59.9087 102.245 59.8127 101.818 59.8127ZM111.813 58.8847C112.026 58.8847 112.218 58.9273 112.389 59.0127C112.56 59.098 112.645 59.226 112.645 59.3967C112.645 59.546 112.602 59.6687 112.517 59.7647C112.432 59.85 112.33 59.8927 112.213 59.8927C112.16 59.8927 112.053 59.866 111.893 59.8127C111.744 59.7593 111.6 59.7327 111.461 59.7327C111.066 59.7327 110.672 59.8873 110.277 60.1967C109.893 60.4953 109.573 60.8847 109.317 61.3647C109.072 61.8447 108.949 62.33 108.949 62.8207V66.7727C108.949 66.9113 108.901 67.0287 108.805 67.1247C108.72 67.21 108.608 67.2527 108.469 67.2527C108.33 67.2527 108.213 67.21 108.117 67.1247C108.032 67.0287 107.989 66.9113 107.989 66.7727V59.6047C107.989 59.466 108.032 59.354 108.117 59.2687C108.213 59.1727 108.33 59.1247 108.469 59.1247C108.608 59.1247 108.72 59.1727 108.805 59.2687C108.901 59.354 108.949 59.466 108.949 59.6047V61.0127C109.194 60.4047 109.562 59.9033 110.053 59.5087C110.554 59.1033 111.141 58.8953 111.813 58.8847ZM115.553 66.7727C115.553 66.9113 115.505 67.0287 115.409 67.1247C115.324 67.21 115.212 67.2527 115.073 67.2527C114.935 67.2527 114.817 67.21 114.721 67.1247C114.636 67.0287 114.593 66.9113 114.593 66.7727V59.4127C114.593 59.274 114.636 59.162 114.721 59.0767C114.817 58.9807 114.935 58.9327 115.073 58.9327C115.212 58.9327 115.324 58.9807 115.409 59.0767C115.505 59.162 115.553 59.274 115.553 59.4127V66.7727ZM115.073 57.8607C114.86 57.8607 114.695 57.8127 114.577 57.7167C114.46 57.61 114.401 57.4607 114.401 57.2687V57.1087C114.401 56.9167 114.46 56.7727 114.577 56.6767C114.705 56.57 114.876 56.5167 115.089 56.5167C115.516 56.5167 115.729 56.714 115.729 57.1087V57.2687C115.729 57.4607 115.671 57.61 115.553 57.7167C115.447 57.8127 115.287 57.8607 115.073 57.8607ZM126.079 63.1567C126.079 63.9567 125.903 64.682 125.551 65.3327C125.199 65.9833 124.714 66.4953 124.095 66.8687C123.476 67.2313 122.788 67.4127 122.031 67.4127C121.274 67.4127 120.586 67.2313 119.967 66.8687C119.348 66.4953 118.863 65.9833 118.511 65.3327C118.159 64.682 117.983 63.9567 117.983 63.1567C117.983 62.3567 118.159 61.6313 118.511 60.9807C118.863 60.33 119.348 59.818 119.967 59.4447C120.586 59.0713 121.274 58.8847 122.031 58.8847C122.788 58.8847 123.476 59.0713 124.095 59.4447C124.714 59.818 125.199 60.33 125.551 60.9807C125.903 61.6313 126.079 62.3567 126.079 63.1567ZM125.119 63.1567C125.119 62.5167 124.986 61.9407 124.719 61.4287C124.452 60.9167 124.079 60.5167 123.599 60.2287C123.13 59.93 122.607 59.7807 122.031 59.7807C121.455 59.7807 120.932 59.93 120.463 60.2287C119.994 60.5167 119.62 60.9167 119.343 61.4287C119.076 61.9407 118.943 62.5167 118.943 63.1567C118.943 63.786 119.076 64.3567 119.343 64.8687C119.62 65.3807 119.994 65.786 120.463 66.0847C120.932 66.3727 121.455 66.5167 122.031 66.5167C122.607 66.5167 123.13 66.3727 123.599 66.0847C124.079 65.7967 124.452 65.3967 124.719 64.8847C124.986 64.3727 125.119 63.7967 125.119 63.1567ZM132.347 58.8847C132.56 58.8847 132.752 58.9273 132.923 59.0127C133.093 59.098 133.179 59.226 133.179 59.3967C133.179 59.546 133.136 59.6687 133.051 59.7647C132.965 59.85 132.864 59.8927 132.747 59.8927C132.693 59.8927 132.587 59.866 132.427 59.8127C132.277 59.7593 132.133 59.7327 131.995 59.7327C131.6 59.7327 131.205 59.8873 130.811 60.1967C130.427 60.4953 130.107 60.8847 129.851 61.3647C129.605 61.8447 129.483 62.33 129.483 62.8207V66.7727C129.483 66.9113 129.435 67.0287 129.339 67.1247C129.253 67.21 129.141 67.2527 129.003 67.2527C128.864 67.2527 128.747 67.21 128.651 67.1247C128.565 67.0287 128.523 66.9113 128.523 66.7727V59.6047C128.523 59.466 128.565 59.354 128.651 59.2687C128.747 59.1727 128.864 59.1247 129.003 59.1247C129.141 59.1247 129.253 59.1727 129.339 59.2687C129.435 59.354 129.483 59.466 129.483 59.6047V61.0127C129.728 60.4047 130.096 59.9033 130.587 59.5087C131.088 59.1033 131.675 58.8953 132.347 58.8847ZM144.814 56.0527C145.838 56.0527 146.697 56.3087 147.39 56.8207C148.094 57.322 148.617 57.9993 148.958 58.8527C149.31 59.6953 149.486 60.6287 149.486 61.6527C149.486 62.7087 149.31 63.658 148.958 64.5007C148.617 65.3433 148.094 66.0153 147.39 66.5167C146.697 67.0073 145.838 67.2527 144.814 67.2527H140.734C140.595 67.2527 140.478 67.21 140.382 67.1247C140.297 67.0287 140.254 66.9113 140.254 66.7727V56.5327C140.254 56.394 140.297 56.282 140.382 56.1967C140.478 56.1007 140.595 56.0527 140.734 56.0527H144.814ZM144.654 66.3087C145.934 66.3087 146.889 65.882 147.518 65.0287C148.147 64.1647 148.462 63.0393 148.462 61.6527C148.462 60.7887 148.329 60.01 148.062 59.3167C147.795 58.6127 147.374 58.0527 146.798 57.6367C146.233 57.21 145.518 56.9967 144.654 56.9967H141.262V66.3087H144.654ZM159.031 62.6927C159.031 62.8207 158.983 62.9327 158.887 63.0287C158.791 63.114 158.679 63.1567 158.551 63.1567H152.503C152.503 63.7967 152.631 64.3727 152.887 64.8847C153.154 65.386 153.527 65.786 154.007 66.0847C154.498 66.3727 155.074 66.5167 155.735 66.5167C156.247 66.5167 156.706 66.41 157.111 66.1967C157.516 65.9833 157.842 65.7113 158.087 65.3807C158.204 65.2847 158.316 65.2367 158.423 65.2367C158.53 65.2367 158.626 65.2793 158.711 65.3647C158.796 65.45 158.839 65.546 158.839 65.6527C158.839 65.77 158.786 65.882 158.679 65.9887C158.338 66.4047 157.906 66.746 157.383 67.0127C156.871 67.2793 156.327 67.4127 155.751 67.4127C154.93 67.4127 154.204 67.2367 153.575 66.8847C152.946 66.5327 152.455 66.042 152.103 65.4127C151.751 64.7727 151.575 64.0367 151.575 63.2047C151.575 62.33 151.746 61.5673 152.087 60.9167C152.439 60.2553 152.903 59.754 153.479 59.4127C154.055 59.0607 154.668 58.8847 155.319 58.8847C155.959 58.8847 156.556 59.034 157.111 59.3327C157.676 59.6313 158.135 60.0687 158.487 60.6447C158.839 61.2207 159.02 61.9033 159.031 62.6927ZM155.319 59.8127C154.7 59.8127 154.124 60.026 153.591 60.4527C153.068 60.8793 152.732 61.4927 152.583 62.2927H158.039V62.1647C157.986 61.6847 157.826 61.2687 157.559 60.9167C157.292 60.554 156.956 60.282 156.551 60.1007C156.156 59.9087 155.746 59.8127 155.319 59.8127ZM161.026 65.9567C160.94 65.818 160.898 65.7007 160.898 65.6047C160.898 65.466 160.967 65.3593 161.106 65.2847C161.17 65.2207 161.255 65.1887 161.362 65.1887C161.49 65.1887 161.607 65.242 161.714 65.3487C162.343 66.1807 163.18 66.5967 164.226 66.5967C164.738 66.5967 165.18 66.4793 165.554 66.2447C165.938 65.9993 166.13 65.6473 166.13 65.1887C166.13 64.7407 165.954 64.4047 165.602 64.1807C165.25 63.9567 164.759 63.7647 164.13 63.6047C163.244 63.3807 162.551 63.0927 162.05 62.7407C161.548 62.378 161.298 61.85 161.298 61.1567C161.298 60.7193 161.42 60.33 161.666 59.9887C161.911 59.6367 162.242 59.3647 162.658 59.1727C163.084 58.9807 163.564 58.8847 164.098 58.8847C164.556 58.8847 165.015 58.9753 165.474 59.1567C165.943 59.3273 166.343 59.6047 166.674 59.9887C166.77 60.0633 166.818 60.17 166.818 60.3087C166.818 60.4367 166.764 60.5487 166.658 60.6447C166.583 60.7087 166.487 60.7407 166.37 60.7407C166.263 60.7407 166.167 60.698 166.082 60.6127C165.826 60.3247 165.522 60.106 165.17 59.9567C164.818 59.8073 164.439 59.7327 164.034 59.7327C163.532 59.7327 163.1 59.85 162.738 60.0847C162.386 60.3193 162.21 60.6713 162.21 61.1407C162.231 61.5673 162.423 61.8927 162.786 62.1167C163.159 62.3407 163.703 62.5433 164.418 62.7247C164.972 62.8633 165.431 63.018 165.794 63.1887C166.156 63.3593 166.45 63.5993 166.674 63.9087C166.908 64.218 167.026 64.6287 167.026 65.1407C167.026 65.834 166.748 66.3887 166.194 66.8047C165.639 67.21 164.951 67.4127 164.13 67.4127C162.828 67.4127 161.794 66.9273 161.026 65.9567ZM170.398 66.7727C170.398 66.9113 170.35 67.0287 170.254 67.1247C170.168 67.21 170.056 67.2527 169.918 67.2527C169.779 67.2527 169.662 67.21 169.566 67.1247C169.48 67.0287 169.438 66.9113 169.438 66.7727V59.4127C169.438 59.274 169.48 59.162 169.566 59.0767C169.662 58.9807 169.779 58.9327 169.918 58.9327C170.056 58.9327 170.168 58.9807 170.254 59.0767C170.35 59.162 170.398 59.274 170.398 59.4127V66.7727ZM169.918 57.8607C169.704 57.8607 169.539 57.8127 169.422 57.7167C169.304 57.61 169.246 57.4607 169.246 57.2687V57.1087C169.246 56.9167 169.304 56.7727 169.422 56.6767C169.55 56.57 169.72 56.5167 169.934 56.5167C170.36 56.5167 170.574 56.714 170.574 57.1087V57.2687C170.574 57.4607 170.515 57.61 170.398 57.7167C170.291 57.8127 170.131 57.8607 169.918 57.8607ZM180.283 59.0767C180.422 59.0767 180.534 59.1247 180.619 59.2207C180.715 59.306 180.763 59.4233 180.763 59.5727V66.5007C180.763 67.3327 180.587 68.042 180.235 68.6287C179.894 69.226 179.419 69.6793 178.811 69.9887C178.214 70.298 177.526 70.4527 176.747 70.4527C176.374 70.4527 175.979 70.4047 175.563 70.3087C175.158 70.2127 174.806 70.09 174.507 69.9407C174.219 69.7913 174.054 69.6367 174.011 69.4767C173.937 69.402 173.899 69.3167 173.899 69.2207C173.899 69.114 173.947 69.0287 174.043 68.9647C174.086 68.9327 174.139 68.9167 174.203 68.9167C174.267 68.9167 174.39 68.954 174.571 69.0287L174.907 69.1727C175.569 69.4287 176.187 69.5567 176.763 69.5567C177.713 69.5567 178.454 69.2847 178.987 68.7407C179.531 68.2073 179.803 67.482 179.803 66.5647V65.5727C179.537 66.1487 179.115 66.602 178.539 66.9327C177.963 67.2527 177.361 67.4127 176.731 67.4127C175.995 67.4127 175.329 67.2313 174.731 66.8687C174.145 66.4953 173.681 65.9833 173.339 65.3327C172.998 64.682 172.827 63.9513 172.827 63.1407C172.827 62.3407 172.998 61.6153 173.339 60.9647C173.681 60.314 174.145 59.8073 174.731 59.4447C175.329 59.0713 175.99 58.8847 176.715 58.8847C177.387 58.8847 178.001 59.0553 178.555 59.3967C179.121 59.7273 179.537 60.1273 179.803 60.5967V59.5727C179.803 59.434 179.846 59.3167 179.931 59.2207C180.027 59.1247 180.145 59.0767 180.283 59.0767ZM176.811 66.5167C177.398 66.5167 177.921 66.378 178.379 66.1007C178.849 65.8127 179.211 65.4127 179.467 64.9007C179.734 64.378 179.867 63.7913 179.867 63.1407C179.867 62.49 179.734 61.9087 179.467 61.3967C179.211 60.8847 178.849 60.49 178.379 60.2127C177.921 59.9247 177.398 59.7807 176.811 59.7807C176.235 59.7807 175.713 59.93 175.243 60.2287C174.785 60.5167 174.422 60.9167 174.155 61.4287C173.899 61.9407 173.771 62.5113 173.771 63.1407C173.771 63.7807 173.899 64.3567 174.155 64.8687C174.422 65.3807 174.785 65.786 175.243 66.0847C175.713 66.3727 176.235 66.5167 176.811 66.5167ZM187.629 58.8847C188.621 58.8847 189.347 59.178 189.805 59.7647C190.275 60.3407 190.509 61.1087 190.509 62.0687V66.7727C190.509 66.9113 190.461 67.0287 190.365 67.1247C190.269 67.21 190.157 67.2527 190.029 67.2527C189.891 67.2527 189.773 67.21 189.677 67.1247C189.592 67.0287 189.549 66.9113 189.549 66.7727V62.1167C189.549 61.4233 189.373 60.8633 189.021 60.4367C188.68 59.9993 188.147 59.7807 187.421 59.7807C186.963 59.7807 186.525 59.8873 186.109 60.1007C185.704 60.314 185.373 60.602 185.117 60.9647C184.861 61.3167 184.733 61.7007 184.733 62.1167V66.7727C184.733 66.9113 184.685 67.0287 184.589 67.1247C184.504 67.21 184.392 67.2527 184.253 67.2527C184.115 67.2527 183.997 67.21 183.901 67.1247C183.816 67.0287 183.773 66.9113 183.773 66.7727V59.6047C183.773 59.466 183.816 59.354 183.901 59.2687C183.997 59.1727 184.115 59.1247 184.253 59.1247C184.392 59.1247 184.504 59.1727 184.589 59.2687C184.685 59.354 184.733 59.466 184.733 59.6047V60.4847C185.021 60.026 185.432 59.6473 185.965 59.3487C186.509 59.0393 187.064 58.8847 187.629 58.8847Z" fill="black"/>
<path d="M43.28 49H226.88" stroke="black"/>
</svg>
